<svg width="326" height="60" viewBox="0 0 326 60" fill="none" xmlns="http://www.w3.org/2000/svg">
    <g filter="url(#filter0_i)">
        <path d="M46.2325 33.2326C42.5288 34.9078 38.4025 35.4147 34.4035 34.6858C30.4044 33.9568 26.7224 32.0265 23.848 29.1521C20.9736 26.2778 19.0433 22.5957 18.3144 18.5967C17.5854 14.5976 18.0923 10.4713 19.7675 6.76758C16.8189 8.10011 14.2376 10.1281 12.245 12.6775C10.2525 15.2269 8.90811 18.2216 8.32731 21.4048C7.74651 24.588 7.94661 27.8645 8.91044 30.9533C9.87426 34.0422 11.573 36.8511 13.861 39.1391C16.149 41.4271 18.9579 43.1259 22.0468 44.0897C25.1356 45.0535 28.4122 45.2536 31.5953 44.6728C34.7785 44.092 37.7732 42.7476 40.3226 40.7551C42.872 38.7625 44.9 36.1812 46.2325 33.2326V33.2326Z" fill="#FEE75C"/>
        <path fill-rule="evenodd" clip-rule="evenodd" d="M30 20.8917C29.337 20.8917 28.7011 20.6224 28.2323 20.1431C27.7634 19.6638 27.5 19.0136 27.5 18.3358C27.5 17.6579 27.7634 17.0077 28.2323 16.5284C28.7011 16.0491 29.337 15.7798 30 15.7798H42.5C43.1631 15.7798 43.799 16.0491 44.2678 16.5284C44.7366 17.0077 45 17.6579 45 18.3358V31.1156C45 31.7935 44.7366 32.4436 44.2678 32.9229C43.799 33.4023 43.1631 33.6716 42.5 33.6716C41.837 33.6716 41.2011 33.4023 40.7323 32.9229C40.2634 32.4436 40 31.7935 40 31.1156V24.5059L29.2675 35.4786C28.7987 35.9578 28.1629 36.227 27.5 36.227C26.8371 36.227 26.2014 35.9578 25.7325 35.4786L20 29.6178L9.26754 40.5906C8.79604 41.0562 8.16453 41.3138 7.50904 41.308C6.85355 41.3022 6.22652 41.0333 5.76299 40.5595C5.29947 40.0856 5.03655 39.4445 5.03086 38.7743C5.02516 38.1042 5.27715 37.4585 5.73254 36.9764L18.2325 24.1966C18.7014 23.7174 19.3371 23.4482 20 23.4482C20.663 23.4482 21.2987 23.7174 21.7675 24.1966L27.5 30.0574L36.465 20.8917H30Z" fill="white"/>
    </g>
    <g filter="url(#filter1_i)">
        <path d="M99.9375 30.4688C99.9375 35.6146 98.7604 39.7604 96.4062 42.9062C94.0521 46.0521 90.8646 47.625 86.8438 47.625C82.7396 47.625 79.5104 46.3229 77.1562 43.7188V60H71.375V13.1875H76.6562L76.9375 16.9375C79.2917 14.0208 82.5625 12.5625 86.75 12.5625C90.8125 12.5625 94.0208 14.0938 96.375 17.1562C98.75 20.2188 99.9375 24.4792 99.9375 29.9375V30.4688ZM94.1562 29.8125C94.1562 26 93.3438 22.9896 91.7188 20.7812C90.0938 18.5729 87.8646 17.4688 85.0312 17.4688C81.5312 17.4688 78.9062 19.0208 77.1562 22.125V38.2812C78.8854 41.3646 81.5312 42.9062 85.0938 42.9062C87.8646 42.9062 90.0625 41.8125 91.6875 39.625C93.3333 37.4167 94.1562 34.1458 94.1562 29.8125ZM123.656 18.375C122.781 18.2292 121.833 18.1562 120.812 18.1562C117.021 18.1562 114.448 19.7708 113.094 23V47H107.312V13.1875H112.938L113.031 17.0938C114.927 14.0729 117.615 12.5625 121.094 12.5625C122.219 12.5625 123.073 12.7083 123.656 13V18.375ZM142.406 47.625C137.823 47.625 134.094 46.125 131.219 43.125C128.344 40.1042 126.906 36.0729 126.906 31.0312V29.9688C126.906 26.6146 127.542 23.625 128.812 21C130.104 18.3542 131.896 16.2917 134.188 14.8125C136.5 13.3125 139 12.5625 141.688 12.5625C146.083 12.5625 149.5 14.0104 151.938 16.9062C154.375 19.8021 155.594 23.9479 155.594 29.3438V31.75H132.688C132.771 35.0833 133.74 37.7812 135.594 39.8438C137.469 41.8854 139.844 42.9062 142.719 42.9062C144.76 42.9062 146.49 42.4896 147.906 41.6562C149.323 40.8229 150.562 39.7188 151.625 38.3438L155.156 41.0938C152.323 45.4479 148.073 47.625 142.406 47.625ZM141.688 17.3125C139.354 17.3125 137.396 18.1667 135.812 19.875C134.229 21.5625 133.25 23.9375 132.875 27H149.812V26.5625C149.646 23.625 148.854 21.3542 147.438 19.75C146.021 18.125 144.104 17.3125 141.688 17.3125ZM182 38.0312C182 36.4688 181.406 35.2604 180.219 34.4062C179.052 33.5312 177 32.7812 174.062 32.1562C171.146 31.5312 168.823 30.7812 167.094 29.9062C165.385 29.0312 164.115 27.9896 163.281 26.7812C162.469 25.5729 162.062 24.1354 162.062 22.4688C162.062 19.6979 163.229 17.3542 165.562 15.4375C167.917 13.5208 170.917 12.5625 174.562 12.5625C178.396 12.5625 181.5 13.5521 183.875 15.5312C186.271 17.5104 187.469 20.0417 187.469 23.125H181.656C181.656 21.5417 180.979 20.1771 179.625 19.0312C178.292 17.8854 176.604 17.3125 174.562 17.3125C172.458 17.3125 170.812 17.7708 169.625 18.6875C168.438 19.6042 167.844 20.8021 167.844 22.2812C167.844 23.6771 168.396 24.7292 169.5 25.4375C170.604 26.1458 172.594 26.8229 175.469 27.4688C178.365 28.1146 180.708 28.8854 182.5 29.7812C184.292 30.6771 185.615 31.7604 186.469 33.0312C187.344 34.2812 187.781 35.8125 187.781 37.625C187.781 40.6458 186.573 43.0729 184.156 44.9062C181.74 46.7188 178.604 47.625 174.75 47.625C172.042 47.625 169.646 47.1458 167.562 46.1875C165.479 45.2292 163.844 43.8958 162.656 42.1875C161.49 40.4583 160.906 38.5938 160.906 36.5938H166.688C166.792 38.5312 167.562 40.0729 169 41.2188C170.458 42.3438 172.375 42.9062 174.75 42.9062C176.938 42.9062 178.688 42.4688 180 41.5938C181.333 40.6979 182 39.5104 182 38.0312ZM209.344 47.625C204.76 47.625 201.031 46.125 198.156 43.125C195.281 40.1042 193.844 36.0729 193.844 31.0312V29.9688C193.844 26.6146 194.479 23.625 195.75 21C197.042 18.3542 198.833 16.2917 201.125 14.8125C203.438 13.3125 205.938 12.5625 208.625 12.5625C213.021 12.5625 216.438 14.0104 218.875 16.9062C221.312 19.8021 222.531 23.9479 222.531 29.3438V31.75H199.625C199.708 35.0833 200.677 37.7812 202.531 39.8438C204.406 41.8854 206.781 42.9062 209.656 42.9062C211.698 42.9062 213.427 42.4896 214.844 41.6562C216.26 40.8229 217.5 39.7188 218.562 38.3438L222.094 41.0938C219.26 45.4479 215.01 47.625 209.344 47.625ZM208.625 17.3125C206.292 17.3125 204.333 18.1667 202.75 19.875C201.167 21.5625 200.188 23.9375 199.812 27H216.75V26.5625C216.583 23.625 215.792 21.3542 214.375 19.75C212.958 18.125 211.042 17.3125 208.625 17.3125ZM234.719 13.1875L234.906 17.4375C237.49 14.1875 240.865 12.5625 245.031 12.5625C252.177 12.5625 255.781 16.5938 255.844 24.6562V47H250.062V24.625C250.042 22.1875 249.479 20.3854 248.375 19.2188C247.292 18.0521 245.594 17.4688 243.281 17.4688C241.406 17.4688 239.76 17.9688 238.344 18.9688C236.927 19.9688 235.823 21.2812 235.031 22.9062V47H229.25V13.1875H234.719ZM278.125 42.9062C280.188 42.9062 281.99 42.2812 283.531 41.0312C285.073 39.7812 285.927 38.2188 286.094 36.3438H291.562C291.458 38.2812 290.792 40.125 289.562 41.875C288.333 43.625 286.688 45.0208 284.625 46.0625C282.583 47.1042 280.417 47.625 278.125 47.625C273.521 47.625 269.854 46.0938 267.125 43.0312C264.417 39.9479 263.062 35.7396 263.062 30.4062V29.4375C263.062 26.1458 263.667 23.2188 264.875 20.6562C266.083 18.0938 267.812 16.1042 270.062 14.6875C272.333 13.2708 275.01 12.5625 278.094 12.5625C281.885 12.5625 285.031 13.6979 287.531 15.9688C290.052 18.2396 291.396 21.1875 291.562 24.8125H286.094C285.927 22.625 285.094 20.8333 283.594 19.4375C282.115 18.0208 280.281 17.3125 278.094 17.3125C275.156 17.3125 272.875 18.375 271.25 20.5C269.646 22.6042 268.844 25.6562 268.844 29.6562V30.75C268.844 34.6458 269.646 37.6458 271.25 39.75C272.854 41.8542 275.146 42.9062 278.125 42.9062ZM312.094 47.625C307.51 47.625 303.781 46.125 300.906 43.125C298.031 40.1042 296.594 36.0729 296.594 31.0312V29.9688C296.594 26.6146 297.229 23.625 298.5 21C299.792 18.3542 301.583 16.2917 303.875 14.8125C306.188 13.3125 308.688 12.5625 311.375 12.5625C315.771 12.5625 319.188 14.0104 321.625 16.9062C324.062 19.8021 325.281 23.9479 325.281 29.3438V31.75H302.375C302.458 35.0833 303.427 37.7812 305.281 39.8438C307.156 41.8854 309.531 42.9062 312.406 42.9062C314.448 42.9062 316.177 42.4896 317.594 41.6562C319.01 40.8229 320.25 39.7188 321.312 38.3438L324.844 41.0938C322.01 45.4479 317.76 47.625 312.094 47.625ZM311.375 17.3125C309.042 17.3125 307.083 18.1667 305.5 19.875C303.917 21.5625 302.938 23.9375 302.562 27H319.5V26.5625C319.333 23.625 318.542 21.3542 317.125 19.75C315.708 18.125 313.792 17.3125 311.375 17.3125Z" fill="white"/>
    </g>
    <defs>
        <filter id="filter0_i" x="0" y="0" width="53" height="58.1194" filterUnits="userSpaceOnUse" color-interpolation-filters="sRGB">
            <feFlood flood-opacity="0" result="BackgroundImageFix"/>
            <feBlend mode="normal" in="SourceGraphic" in2="BackgroundImageFix" result="shape"/>
            <feColorMatrix in="SourceAlpha" type="matrix" values="0 0 0 0 0 0 0 0 0 0 0 0 0 0 0 0 0 0 127 0" result="hardAlpha"/>
            <feOffset dy="4"/>
            <feGaussianBlur stdDeviation="2"/>
            <feComposite in2="hardAlpha" operator="arithmetic" k2="-1" k3="1"/>
            <feColorMatrix type="matrix" values="0 0 0 0 0 0 0 0 0 0 0 0 0 0 0 0 0 0 0.25 0"/>
            <feBlend mode="normal" in2="shape" result="effect1_innerShadow"/>
        </filter>
        <filter id="filter1_i" x="71.375" y="12.5625" width="253.906" height="51.4375" filterUnits="userSpaceOnUse" color-interpolation-filters="sRGB">
            <feFlood flood-opacity="0" result="BackgroundImageFix"/>
            <feBlend mode="normal" in="SourceGraphic" in2="BackgroundImageFix" result="shape"/>
            <feColorMatrix in="SourceAlpha" type="matrix" values="0 0 0 0 0 0 0 0 0 0 0 0 0 0 0 0 0 0 127 0" result="hardAlpha"/>
            <feOffset dy="4"/>
            <feGaussianBlur stdDeviation="2"/>
            <feComposite in2="hardAlpha" operator="arithmetic" k2="-1" k3="1"/>
            <feColorMatrix type="matrix" values="0 0 0 0 0 0 0 0 0 0 0 0 0 0 0 0 0 0 0.25 0"/>
            <feBlend mode="normal" in2="shape" result="effect1_innerShadow"/>
        </filter>
    </defs>
</svg>
