<svg width="744" height="137" viewBox="0 0 744 137" fill="none" xmlns="http://www.w3.org/2000/svg">
    <path fill-rule="evenodd" clip-rule="evenodd" d="M80.4001 47.95C78.6231 47.95 76.919 47.2283 75.6625 45.9437C74.406 44.6591 73.7001 42.9167 73.7001 41.1C73.7001 39.2833 74.406 37.5409 75.6625 36.2563C76.919 34.9717 78.6231 34.25 80.4001 34.25H113.9C115.677 34.25 117.381 34.9717 118.638 36.2563C119.894 37.5409 120.6 39.2833 120.6 41.1V75.35C120.6 77.1667 119.894 78.909 118.638 80.1937C117.381 81.4783 115.677 82.2 113.9 82.2C112.123 82.2 110.419 81.4783 109.162 80.1937C107.906 78.909 107.2 77.1667 107.2 75.35V57.6359L78.437 87.0429C77.1805 88.3271 75.4767 89.0485 73.7001 89.0485C71.9235 89.0485 70.2196 88.3271 68.9632 87.0429L53.6001 71.3359L24.837 100.743C23.5734 101.991 21.8809 102.681 20.1242 102.666C18.3675 102.65 16.687 101.93 15.4448 100.66C14.2026 99.3895 13.4979 97.6714 13.4827 95.8753C13.4674 94.0793 14.1427 92.349 15.3632 91.057L48.8632 56.807C50.1196 55.5229 51.8235 54.8015 53.6001 54.8015C55.3767 54.8015 57.0806 55.5229 58.337 56.807L73.7001 72.5141L97.7263 47.95H80.4001Z" fill="#262525"/>
    <path d="M208.109 64.8047C208.109 76.3828 205.461 85.7109 200.164 92.7891C194.867 99.8672 187.695 103.406 178.648 103.406C169.414 103.406 162.148 100.477 156.852 94.6172V131.25H143.844V25.9219H155.727L156.359 34.3594C161.656 27.7969 169.016 24.5156 178.438 24.5156C187.578 24.5156 194.797 27.9609 200.094 34.8516C205.438 41.7422 208.109 51.3281 208.109 63.6094V64.8047ZM195.102 63.3281C195.102 54.75 193.273 47.9766 189.617 43.0078C185.961 38.0391 180.945 35.5547 174.57 35.5547C166.695 35.5547 160.789 39.0469 156.852 46.0312V82.3828C160.742 89.3203 166.695 92.7891 174.711 92.7891C180.945 92.7891 185.891 90.3281 189.547 85.4062C193.25 80.4375 195.102 73.0781 195.102 63.3281ZM261.477 37.5938C259.508 37.2656 257.375 37.1016 255.078 37.1016C246.547 37.1016 240.758 40.7344 237.711 48V102H224.703V25.9219H237.359L237.57 34.7109C241.836 27.9141 247.883 24.5156 255.711 24.5156C258.242 24.5156 260.164 24.8438 261.477 25.5V37.5938ZM303.664 103.406C293.352 103.406 284.961 100.031 278.492 93.2812C272.023 86.4844 268.789 77.4141 268.789 66.0703V63.6797C268.789 56.1328 270.219 49.4062 273.078 43.5C275.984 37.5469 280.016 32.9062 285.172 29.5781C290.375 26.2031 296 24.5156 302.047 24.5156C311.938 24.5156 319.625 27.7734 325.109 34.2891C330.594 40.8047 333.336 50.1328 333.336 62.2734V67.6875H281.797C281.984 75.1875 284.164 81.2578 288.336 85.8984C292.555 90.4922 297.898 92.7891 304.367 92.7891C308.961 92.7891 312.852 91.8516 316.039 89.9766C319.227 88.1016 322.016 85.6172 324.406 82.5234L332.352 88.7109C325.977 98.5078 316.414 103.406 303.664 103.406ZM302.047 35.2031C296.797 35.2031 292.391 37.125 288.828 40.9688C285.266 44.7656 283.062 50.1094 282.219 57H320.328V56.0156C319.953 49.4062 318.172 44.2969 314.984 40.6875C311.797 37.0312 307.484 35.2031 302.047 35.2031ZM392.75 81.8203C392.75 78.3047 391.414 75.5859 388.742 73.6641C386.117 71.6953 381.5 70.0078 374.891 68.6016C368.328 67.1953 363.102 65.5078 359.211 63.5391C355.367 61.5703 352.508 59.2266 350.633 56.5078C348.805 53.7891 347.891 50.5547 347.891 46.8047C347.891 40.5703 350.516 35.2969 355.766 30.9844C361.062 26.6719 367.812 24.5156 376.016 24.5156C384.641 24.5156 391.625 26.7422 396.969 31.1953C402.359 35.6484 405.055 41.3438 405.055 48.2812H391.977C391.977 44.7188 390.453 41.6484 387.406 39.0703C384.406 36.4922 380.609 35.2031 376.016 35.2031C371.281 35.2031 367.578 36.2344 364.906 38.2969C362.234 40.3594 360.898 43.0547 360.898 46.3828C360.898 49.5234 362.141 51.8906 364.625 53.4844C367.109 55.0781 371.586 56.6016 378.055 58.0547C384.57 59.5078 389.844 61.2422 393.875 63.2578C397.906 65.2734 400.883 67.7109 402.805 70.5703C404.773 73.3828 405.758 76.8281 405.758 80.9062C405.758 87.7031 403.039 93.1641 397.602 97.2891C392.164 101.367 385.109 103.406 376.438 103.406C370.344 103.406 364.953 102.328 360.266 100.172C355.578 98.0156 351.898 95.0156 349.227 91.1719C346.602 87.2812 345.289 83.0859 345.289 78.5859H358.297C358.531 82.9453 360.266 86.4141 363.5 88.9922C366.781 91.5234 371.094 92.7891 376.438 92.7891C381.359 92.7891 385.297 91.8047 388.25 89.8359C391.25 87.8203 392.75 85.1484 392.75 81.8203ZM454.273 103.406C443.961 103.406 435.57 100.031 429.102 93.2812C422.633 86.4844 419.398 77.4141 419.398 66.0703V63.6797C419.398 56.1328 420.828 49.4062 423.688 43.5C426.594 37.5469 430.625 32.9062 435.781 29.5781C440.984 26.2031 446.609 24.5156 452.656 24.5156C462.547 24.5156 470.234 27.7734 475.719 34.2891C481.203 40.8047 483.945 50.1328 483.945 62.2734V67.6875H432.406C432.594 75.1875 434.773 81.2578 438.945 85.8984C443.164 90.4922 448.508 92.7891 454.977 92.7891C459.57 92.7891 463.461 91.8516 466.648 89.9766C469.836 88.1016 472.625 85.6172 475.016 82.5234L482.961 88.7109C476.586 98.5078 467.023 103.406 454.273 103.406ZM452.656 35.2031C447.406 35.2031 443 37.125 439.438 40.9688C435.875 44.7656 433.672 50.1094 432.828 57H470.938V56.0156C470.562 49.4062 468.781 44.2969 465.594 40.6875C462.406 37.0312 458.094 35.2031 452.656 35.2031ZM511.367 25.9219L511.789 35.4844C517.602 28.1719 525.195 24.5156 534.57 24.5156C550.648 24.5156 558.758 33.5859 558.898 51.7266V102H545.891V51.6562C545.844 46.1719 544.578 42.1172 542.094 39.4922C539.656 36.8672 535.836 35.5547 530.633 35.5547C526.414 35.5547 522.711 36.6797 519.523 38.9297C516.336 41.1797 513.852 44.1328 512.07 47.7891V102H499.062V25.9219H511.367ZM609.031 92.7891C613.672 92.7891 617.727 91.3828 621.195 88.5703C624.664 85.7578 626.586 82.2422 626.961 78.0234H639.266C639.031 82.3828 637.531 86.5312 634.766 90.4688C632 94.4062 628.297 97.5469 623.656 99.8906C619.062 102.234 614.188 103.406 609.031 103.406C598.672 103.406 590.422 99.9609 584.281 93.0703C578.188 86.1328 575.141 76.6641 575.141 64.6641V62.4844C575.141 55.0781 576.5 48.4922 579.219 42.7266C581.938 36.9609 585.828 32.4844 590.891 29.2969C596 26.1094 602.023 24.5156 608.961 24.5156C617.492 24.5156 624.57 27.0703 630.195 32.1797C635.867 37.2891 638.891 43.9219 639.266 52.0781H626.961C626.586 47.1562 624.711 43.125 621.336 39.9844C618.008 36.7969 613.883 35.2031 608.961 35.2031C602.352 35.2031 597.219 37.5938 593.562 42.375C589.953 47.1094 588.148 53.9766 588.148 62.9766V65.4375C588.148 74.2031 589.953 80.9531 593.562 85.6875C597.172 90.4219 602.328 92.7891 609.031 92.7891ZM685.461 103.406C675.148 103.406 666.758 100.031 660.289 93.2812C653.82 86.4844 650.586 77.4141 650.586 66.0703V63.6797C650.586 56.1328 652.016 49.4062 654.875 43.5C657.781 37.5469 661.812 32.9062 666.969 29.5781C672.172 26.2031 677.797 24.5156 683.844 24.5156C693.734 24.5156 701.422 27.7734 706.906 34.2891C712.391 40.8047 715.133 50.1328 715.133 62.2734V67.6875H663.594C663.781 75.1875 665.961 81.2578 670.133 85.8984C674.352 90.4922 679.695 92.7891 686.164 92.7891C690.758 92.7891 694.648 91.8516 697.836 89.9766C701.023 88.1016 703.812 85.6172 706.203 82.5234L714.148 88.7109C707.773 98.5078 698.211 103.406 685.461 103.406ZM683.844 35.2031C678.594 35.2031 674.188 37.125 670.625 40.9688C667.062 44.7656 664.859 50.1094 664.016 57H702.125V56.0156C701.75 49.4062 699.969 44.2969 696.781 40.6875C693.594 37.0312 689.281 35.2031 683.844 35.2031Z" fill="black"/>
    <rect x="694" width="50" height="50" rx="25" fill="white"/>
    <path d="M737.233 33.2326C733.529 34.9078 729.403 35.4147 725.403 34.6858C721.404 33.9568 717.722 32.0265 714.848 29.1521C711.974 26.2778 710.043 22.5957 709.314 18.5967C708.585 14.5976 709.092 10.4713 710.768 6.76758C707.819 8.10011 705.238 10.1281 703.245 12.6775C701.252 15.2269 699.908 18.2216 699.327 21.4048C698.747 24.588 698.947 27.8645 699.91 30.9533C700.874 34.0422 702.573 36.8511 704.861 39.1391C707.149 41.4271 709.958 43.1259 713.047 44.0897C716.136 45.0535 719.412 45.2536 722.595 44.6728C725.778 44.092 728.773 42.7476 731.323 40.7551C733.872 38.7625 735.9 36.1812 737.233 33.2326Z" fill="#FEE75C"/>
</svg>
